<svg xmlns="http://www.w3.org/2000/svg" viewBox="0 0 256 256" role="img" aria-labelledby="title desc">
  <title id="title">Doordarshan avatar</title>
  <desc id="desc">A retro broadcast mascot with a television head, rendered in warm terracotta and cream on a charcoal medallion.</desc>

  <circle cx="128" cy="128" r="86" fill="#1d2128"/>

  <path d="M118 64l-12-14" fill="none" stroke="#c55f37" stroke-width="5.5" stroke-linecap="round"/>
  <path d="M138 64l12-14" fill="none" stroke="#c55f37" stroke-width="5.5" stroke-linecap="round"/>
  <path d="M122 58h12l7 8h-26z" fill="#c55f37"/>

  <rect x="81" y="73" width="94" height="67" rx="13" fill="#c55f37"/>
  <rect x="92" y="81" width="63" height="51" rx="11" fill="#f3e5b5" stroke="#1d2128" stroke-width="4"/>
  <circle cx="163" cy="89" r="4.5" fill="#f3e5b5"/>
  <circle cx="163" cy="103" r="4.5" fill="#f3e5b5"/>
  <rect x="157" y="116" width="13" height="3.5" rx="1.75" fill="#1d2128"/>
  <rect x="157" y="124" width="13" height="3.5" rx="1.75" fill="#1d2128"/>
  <rect x="157" y="132" width="13" height="3.5" rx="1.75" fill="#1d2128"/>

  <path d="M111 140h34v16l-7 8h-20l-7-8z" fill="#c55f37"/>

  <path d="M79 182c8-20 24-31 49-31s41 11 49 31c-10 8-25 13-49 13s-39-5-49-13z" fill="#c55f37"/>
  <path d="M119 150l-8 8 5 12c-10-2-18-6-25-12 3-4 8-8 16-10z" fill="#f3e5b5"/>
  <path d="M137 150l8 8-5 12c10-2 18-6 25-12-3-4-8-8-16-10z" fill="#f3e5b5"/>
  <path d="M131 151c18 8 29 19 34 33-8 4-19 8-33 10l-17-31z" fill="#f3e5b5"/>
  <path d="M142 151l17 31" fill="none" stroke="#c55f37" stroke-width="3"/>
  <path d="M150 152l17 31" fill="none" stroke="#c55f37" stroke-width="3"/>
  <circle cx="128" cy="172" r="3.8" fill="#f3e5b5"/>
</svg>
